#!OML:ASF I:\Actors\actors\Patient Classification 1\Patient 1\Session 1\Subject1.ASF
:FULLY-SPECIFIED
:DEGREES
1567
root 0.076096 17.6652 9.61299 20.7265 -17.6178 -6.207
lowerback 7.72902 -7.4164 7.69753
upperback -9.18914 -8.09648 8.65275
thorax -14.3942 -4.06581 7.13594
lowerneck -18.9843 -3.77757 -2.25938
upperneck 18.3257 -4.65936 0.311287
head 8.93228 -2.321 -0.13724
rclavicle 1.63003e-014 -2.70347e-014
rhumerus 19.8306 21.2254 -86.9128
rradius 54.4744
rwrist -34.5448
rhand 15.8805 -63.9238
rfingers 7.12502
rthumb 40.6798 2071.06
lclavicle 1.63003e-014 -2.70347e-014
lhumerus 32.4229 -12.8185 102.432
lradius 27.5355
lwrist 41.4825
lhand -12.0136 12.3034
lfingers 7.12502
lthumb 14.0439 41.8089
rfemur -17.0589 27.1044 17.5758
rtibia 1.00559
rfoot -8.92663 -21.7714
rtoes 7.4839
lfemur -12.2732 102.01 -23.7205
ltibia -0.256351
lfoot -120.089 133.847
ltoes 48.7977
1568
root 0.0543167 17.6786 9.60699 20.9506 -17.4607 -5.84836
lowerback 8.11003 -7.6063 7.93868
upperback -9.01501 -8.24799 8.93695
thorax -14.4193 -4.13497 7.40631
lowerneck -19.4105 -3.45549 -1.84157
upperneck 17.4276 -4.18147 -0.254569
head 8.67046 -2.12657 -0.329972
rclavicle 3.75703e-014 4.6118e-014
rhumerus 21.8277 20.0679 -87.9919
rradius 52.2052
rwrist -34.7068
rhand 16.9186 -65.5202
rfingers 7.12502
rthumb 41.6545 2250.22
lclavicle 3.75703e-014 4.6118e-014
lhumerus 34.326 -9.05356 105.382
lradius 24.3433
lwrist 36.9772
lhand -10.698 13.6914
lfingers 7.12502
lthumb 15.3114 43.1046
rfemur -17.4904 27.3668 16.9988
rtibia 0.995364
rfoot -8.79538 -22.2853
rtoes 7.48879
lfemur -11.7425 100.268 -23.5207
ltibia -0.711582
lfoot -122.016 134.414
ltoes 48.8953
1569
root 0.0356946 17.6923 9.60224 21.0981 -17.4167 -5.28284
lowerback 8.5554 -7.80149 7.94195
upperback -8.85381 -8.43738 9.17081
thorax -14.4627 -4.20053 7.76709
lowerneck -19.8361 -3.05573 -1.36109
upperneck 16.677 -3.62771 -0.843039
head 8.46349 -1.89529 -0.531855
rclavicle 1.10723e-013 -9.54166e-014
rhumerus 23.6889 19.1948 -89.1604
rradius 50.0094
rwrist -34.4026
rhand 17.1932 -66.4578
rfingers 7.12502
rthumb 41.9119 2251.08
lclavicle 1.10723e-013 -9.54166e-014
lhumerus 36.2979 -4.81192 108.985
lradius 21.1313
lwrist 31.0651
lhand -9.74229 14.5447
lfingers 7.12502
lthumb 16.2318 43.8852
rfemur -17.9064 27.815 16.0993
rtibia 0.908622
rfoot -8.80672 -22.9802
rtoes 7.84111
lfemur -10.5823 98.556 -22.972
ltibia -1.21838
lfoot -123.92 134.84
ltoes 48.8712
1570
root 0.0207875 17.7031 9.59501 21.3029 -17.4904 -4.82242
lowerback 9.0057 -7.95231 7.93863
upperback -8.68451 -8.56443 9.43289
thorax -14.4951 -4.23493 8.15277
lowerneck -20.1958 -2.62927 -0.971404
upperneck 15.9775 -3.06924 -1.21874
head 8.27485 -1.64507 -0.646231
rclavicle 2.00773e-014 1.01778e-013
rhumerus 25.2293 18.5369 -90.3133
rradius 48.0967
rwrist -33.6155
rhand 17.4427 -67.2561
rfingers 7.12502
rthumb 42.1457 2251.8
lclavicle 2.00773e-014 1.01778e-013
lhumerus 38.2588 -0.665093 112.668
lradius 18.2739
lwrist 24.6397
lhand -9.33725 14.4459
lfingers 7.12502
lthumb 16.6218 43.7541
rfemur -18.4046 28.115 15.2991
rtibia 0.884948
rfoot -8.854 -23.3898
rtoes 8.20821
lfemur -8.76057 96.9896 -21.6506
ltibia -1.65008
lfoot -125.705 135.557
ltoes 49.0959
1571
root 0.00882168 17.7102 9.58488 21.5899 -17.6987 -4.57359
lowerback 9.43852 -8.02075 8.02828
upperback -8.48801 -8.56665 9.70967
thorax -14.5042 -4.21996 8.47428
lowerneck -20.4648 -2.27104 -0.754398
upperneck 15.352 -2.61705 -1.32515
head 8.10643 -1.42726 -0.655767
rclavicle 7.7526e-015 -1.27222e-014
rhumerus 26.4944 18.029 -91.3142
rradius 46.4574
rwrist -32.5902
rhand 18.0297 -68.2106
rfingers 7.12502
rthumb 42.6954 2252.56
lclavicle 7.7526e-015 -1.27222e-014
lhumerus 39.9993 2.76596 115.866
lradius 16.1401
lwrist 18.926
lhand -9.05298 14.126
lfingers 7.12502
lthumb 16.8954 43.4111
rfemur -18.9756 28.3012 14.7342
rtibia 0.938843
rfoot -8.78151 -23.5112
rtoes 8.15999
lfemur -6.54448 95.6248 -19.6879
ltibia -1.94574
lfoot -127.452 136.371
ltoes 49.3661
1572
root -0.00233643 17.7163 9.57436 21.8779 -18.073 -4.36447
lowerback 9.81516 -8.08275 7.92998
upperback -8.22096 -8.60138 10.0456
thorax -14.3468 -4.20737 8.94211
lowerneck -20.5542 -1.84988 -0.27512
upperneck 14.4059 -2.08563 -1.85137
head 7.79517 -1.19966 -0.833002
rclavicle 1.27222e-014 -9.54166e-015
rhumerus 27.7336 17.9569 -92.1074
rradius 44.819
rwrist -31.5868
rhand 18.9072 -68.8659
rfingers 7.12502
rthumb 43.5158 2252.93
lclavicle 1.27222e-014 -9.54166e-015
lhumerus 41.6576 5.69367 118.5
lradius 14.7941
lwrist 14.3166
lhand -8.30003 14.3867
lfingers 7.12502
lthumb 17.6201 43.6083
rfemur -19.5557 28.6347 14.1672
rtibia 0.966755
rfoot -8.5829 -23.6834
rtoes 8.04435
lfemur -3.47076 94.4326 -16.8474
ltibia -2.18288
lfoot -129.223 137.041
ltoes 49.4981
1573
root -0.0103522 17.7233 9.5652 22.2355 -18.5222 -4.07142
lowerback 10.0989 -8.2039 7.71906
upperback -8.01154 -8.74715 10.3928
thorax -14.1694 -4.24071 9.50068
lowerneck -20.7446 -1.38414 0.0689341
upperneck 13.8563 -1.47616 -2.28988
head 7.64382 -0.93441 -0.955682
rclavicle 1.15693e-013 -8.26944e-014
rhumerus 28.7538 18.4106 -92.7501
rradius 43.2633
rwrist -30.9408
rhand 20.0131 -69.267
rfingers 7.12502
rthumb 44.5473 2252.94
lclavicle 1.15693e-013 -8.26944e-014
lhumerus 43.1558 8.23571 120.484
lradius 14.0399
lwrist 11.0369
lhand -7.26637 14.7729
lfingers 7.12502
lthumb 18.6146 43.9022
rfemur -20.2559 29.1063 13.3686
rtibia 0.917149
rfoot -8.35577 -24.0305
rtoes 8.18057
lfemur 4.3938 93.3204 -9.34475
ltibia -2.46037
lfoot -130.882 137.738
ltoes 49.5997
